<svg width="189" height="159" viewBox="0 0 189 159" fill="none" xmlns="http://www.w3.org/2000/svg">
<path d="M1.5 159L15.7679 149.18L0.12988 141.734L1.5 159ZM181 79.5L182.282 80.2792L181 79.5ZM5.72294 153.62C6.09659 152.88 5.80011 151.978 5.06073 151.604C4.32136 151.231 3.41907 151.527 3.04542 152.267L5.72294 153.62ZM9.65926 140.717C9.2077 141.411 9.40468 142.34 10.0992 142.792C10.7938 143.243 11.7229 143.047 12.1744 142.352L9.65926 140.717ZM20.0071 131.899C20.5501 131.273 20.4831 130.326 19.8575 129.783C19.2318 129.24 18.2845 129.307 17.7414 129.932L20.0071 131.899ZM27.3493 120.527C26.71 121.054 26.6188 121.999 27.1456 122.639C27.6724 123.278 28.6178 123.369 29.2571 122.842L27.3493 120.527ZM39.9351 115.576C40.6603 115.175 40.9235 114.263 40.5231 113.537C40.1226 112.812 39.21 112.549 38.4848 112.95L39.9351 115.576ZM50.8228 107.537C50.0378 107.802 49.6162 108.653 49.881 109.438C50.1458 110.223 50.9968 110.644 51.7817 110.38L50.8228 107.537ZM64.3758 107.203C65.1916 107.059 65.736 106.281 65.5918 105.465C65.4475 104.649 64.6693 104.105 63.8535 104.249L64.3758 107.203ZM77.1508 102.695C76.3241 102.748 75.6973 103.462 75.7508 104.288C75.8043 105.115 76.5178 105.742 77.3445 105.688L77.1508 102.695ZM90.4648 105.341C91.2932 105.345 91.9681 104.677 91.9722 103.848C91.9763 103.02 91.3081 102.345 90.4797 102.341L90.4648 105.341ZM103.755 102.652C102.927 102.623 102.232 103.27 102.203 104.098C102.173 104.926 102.821 105.621 103.649 105.65L103.755 102.652ZM116.889 106.104C117.717 106.126 118.406 105.472 118.428 104.644C118.449 103.815 117.795 103.127 116.967 103.105L116.889 106.104ZM130.111 103.132C129.283 103.158 128.633 103.85 128.658 104.678C128.684 105.506 129.376 106.156 130.204 106.131L130.111 103.132ZM143.547 105C144.366 104.876 144.929 104.112 144.805 103.293C144.681 102.473 143.916 101.91 143.097 102.034L143.547 105ZM155.623 98.9171C154.845 99.2033 154.447 100.065 154.733 100.843C155.019 101.62 155.881 102.019 156.659 101.733L155.623 98.9171ZM168.668 95.3748C169.338 94.8875 169.486 93.9494 168.999 93.2794C168.511 92.6095 167.573 92.4615 166.903 92.9489L168.668 95.3748ZM176.065 84.0277C175.555 84.6807 175.671 85.6234 176.324 86.1332C176.977 86.643 177.919 86.527 178.429 85.874L176.065 84.0277ZM185.175 74.446C185.483 73.677 185.109 72.8039 184.34 72.4959C183.571 72.1879 182.698 72.5617 182.39 73.3307L185.175 74.446ZM185.332 61.5636C185.235 62.3863 185.823 63.1322 186.645 63.2297C187.468 63.3272 188.214 62.7393 188.312 61.9166L185.332 61.5636ZM188.277 49.0361C188.174 48.214 187.425 47.6304 186.603 47.7326C185.781 47.8348 185.197 48.584 185.3 49.4061L188.277 49.0361ZM182.309 37.6342C182.614 38.4045 183.486 38.7819 184.256 38.4771C185.026 38.1723 185.404 37.3007 185.099 36.5304L182.309 37.6342ZM178.811 25.261C178.315 24.5974 177.375 24.4614 176.711 24.9573C176.048 25.4532 175.912 26.3932 176.407 27.0568L178.811 25.261ZM167.951 18.3558C168.598 18.8732 169.542 18.7681 170.059 18.1212C170.577 17.4742 170.471 16.5303 169.825 16.0128L167.951 18.3558ZM158.931 9.1601C158.187 8.79561 157.289 9.1032 156.924 9.84713C156.56 10.5911 156.867 11.4896 157.611 11.8541L158.931 9.1601ZM146.169 7.48265C146.965 7.7129 147.797 7.25445 148.027 6.45866C148.257 5.66287 147.799 4.8311 147.003 4.60085L146.169 7.48265ZM134.551 1.92984C133.732 1.80878 132.969 2.375 132.848 3.19453C132.727 4.01407 133.294 4.77657 134.113 4.89764L134.551 1.92984ZM121.765 3.75885C122.592 3.79332 123.291 3.15026 123.326 2.32255C123.36 1.49484 122.717 0.795912 121.889 0.761452L121.765 3.75885ZM109.218 0.778733C108.39 0.812895 107.747 1.51159 107.781 2.33931C107.815 3.16704 108.514 3.81034 109.342 3.77618L109.218 0.778733ZM96.9496 4.71642C97.7732 4.62719 98.3685 3.8872 98.2793 3.06359C98.1901 2.23998 97.4501 1.64464 96.6265 1.73387L96.9496 4.71642ZM12.1744 142.352C14.6915 138.48 17.3069 135.01 20.0071 131.899L17.7414 129.932C14.9456 133.153 12.2475 136.736 9.65926 140.717L12.1744 142.352ZM29.2571 122.842C32.7164 119.992 36.2827 117.593 39.9351 115.576L38.4848 112.95C34.6731 115.055 30.9533 117.557 27.3493 120.527L29.2571 122.842ZM51.7817 110.38C55.9058 108.988 60.1122 107.957 64.3758 107.203L63.8535 104.249C59.4613 105.026 55.1071 106.092 50.8228 107.537L51.7817 110.38ZM77.3445 105.688C81.6988 105.407 86.0802 105.319 90.4648 105.341L90.4797 102.341C86.0468 102.319 81.593 102.407 77.1508 102.695L77.3445 105.688ZM103.649 105.65C108.095 105.808 112.53 105.991 116.889 106.104L116.967 103.105C112.627 102.992 108.225 102.811 103.755 102.652L103.649 105.65ZM130.204 106.131C134.764 105.99 139.227 105.655 143.547 105L143.097 102.034C138.927 102.666 134.588 102.994 130.111 103.132L130.204 106.131ZM156.659 101.733C160.895 100.173 164.917 98.1038 168.668 95.3748L166.903 92.9489C163.398 95.4992 159.625 97.4439 155.623 98.9171L156.659 101.733ZM178.429 85.874C179.775 84.1504 181.06 82.2887 182.282 80.2792L179.718 78.7208C178.555 80.6349 177.336 82.4 176.065 84.0277L178.429 85.874ZM182.282 80.2792C183.368 78.4923 184.338 76.5354 185.175 74.446L182.39 73.3307C181.61 75.2783 180.712 77.0857 179.718 78.7208L182.282 80.2792ZM188.312 61.9166C188.802 57.7788 188.823 53.4298 188.277 49.0361L185.3 49.4061C185.815 53.5517 185.795 57.6578 185.332 61.5636L188.312 61.9166ZM185.099 36.5304C183.56 32.6402 181.487 28.8424 178.811 25.261L176.407 27.0568C178.919 30.4171 180.864 33.9806 182.309 37.6342L185.099 36.5304ZM169.825 16.0128C166.652 13.4759 163.033 11.1698 158.931 9.1601L157.611 11.8541C161.524 13.7711 164.956 15.961 167.951 18.3558L169.825 16.0128ZM147.003 4.60085C143.163 3.48971 139.018 2.58962 134.551 1.92984L134.113 4.89764C138.455 5.539 142.467 6.41146 146.169 7.48265L147.003 4.60085ZM121.889 0.761452C117.881 0.594566 113.66 0.595399 109.218 0.778733L109.342 3.77618C113.706 3.59605 117.844 3.59562 121.765 3.75885L121.889 0.761452ZM96.6265 1.73387C94.5581 1.95794 92.4479 2.21767 90.2953 2.51422L90.7047 5.48615C92.8294 5.19345 94.9107 4.93729 96.9496 4.71642L96.6265 1.73387Z" fill="white"/>
</svg>
